# xmcd
#
# Track frame offsets:
#	150
#	19389
#	41879
#	61190
#	84780
#	108385
#	127653
#	147569
#	165779
#	181866
#	197934
#	215447
#	230013
#	247627
#
# Disc length: 3486 seconds
# Revision: 0
# Processed by: cddbd v1.5.2PL0 Copyright (c) Steve Scherf et al.
# Submitted via: dBpowerAMP V12.0
#
DISCID=b30d9c0e
DTITLE=Various Artist - Deeper Than Rap
DYEAR=2009
DGENRE=Hip Hop
TTITLE0=Rick Ross - Mafia Music
TTITLE1=Rick Ross featuring T-Pain, Lil Wayne and Kanye West - Maybach Music 2
TTITLE2=Rick Ross featuring John Legend - Magnificent
TTITLE3=Rick Ross featuring Magazeen - Yacht Club
TTITLE4=Rick Ross featuring Nas - Usual Suspects
TTITLE5=Rick Ross featuring The-Dream - All I Really Want
TTITLE6=Rick Ross - Rich Off Cocaine
TTITLE7=Rick Ross featuring Robin Thicke - Lay Back
TTITLE8=Rick Ross featuring Foxy Brown - Murda Mami
TTITLE9=Rick Ross featuring Gunplay - Gunplay
TTITLE10=Rick Ross featuring Ne-Yo - Bossy Lady
TTITLE11=Rick Ross featuring Trina - Face
TTITLE12=Rick Ross - Valley Of Death
TTITLE13=Rick Ross - In Cold Blood
EXTD=
EXTT0=
EXTT1=
EXTT2=
EXTT3=
EXTT4=
EXTT5=
EXTT6=
EXTT7=
EXTT8=
EXTT9=
EXTT10=
EXTT11=
EXTT12=
EXTT13=
PLAYORDER=
